<svg xmlns="http://www.w3.org/2000/svg" id="football" enable-background="new 0 0 64 64" viewBox="0 0 64 64">
  <path fill="#143751" d="M53,35.8c-1.3-1.5-3.6-1.7-5.2-0.6l-4.4,3L36.9,33l-1.7-7.6l6.4,3.7c0.9,0.5,1.9,0.6,2.9,0.3
				c1-0.3,1.8-0.9,2.2-1.8c0.9-1.6,0.4-3.7-1.1-4.8l-13.1-9C31.7,13.3,30.9,13,30,13c-0.3,0-0.6,0-0.9,0.1l-4.5,1L15.5,12
				c-2.3-0.6-3.9-0.2-5,1.4c-0.6,0.9-0.7,2-0.3,3.2c0.5,1.4,1.6,2.5,3.2,2.9l9.5,2.8L25.5,35l-5.8,8.1c-0.5,0.7-0.7,1.6-0.5,2.5
				l3.5,14.3c0.5,1.9,2.2,3.2,4,3.2c0.3,0,0.6,0,0.9-0.1c2.2-0.5,3.6-2.7,3.2-4.9l-2.6-11.8c-0.1-0.4,0-0.8,0.3-1l5.1-4.7l8.4,6.7
				c1.1,0.9,2.7,0.9,3.8,0l6.8-5.6c0.8-0.7,1.4-1.7,1.4-2.8C54.1,37.7,53.7,36.6,53,35.8z M51.3,40l-6.8,5.6c-0.4,0.3-1,0.3-1.4,0
				l-9.1-7.2c-0.4-0.3-0.9-0.3-1.3,0l-5.7,5.3c-0.8,0.7-1.1,1.8-0.9,2.9l2.6,11.8c0.3,1.2-0.5,2.4-1.7,2.6c-1.2,0.3-2.3-0.5-2.6-1.6
				l-3.5-14.3c-0.1-0.3,0-0.6,0.2-0.9l6-8.5c0.2-0.2,0.2-0.5,0.2-0.8l-2.7-13.7c-0.1-0.3-0.3-0.6-0.7-0.7l-10.1-3
				c-0.9-0.3-1.6-0.9-1.9-1.7c-0.2-0.6-0.2-1.1,0.1-1.5c0.3-0.4,0.7-0.8,1.5-0.8c0.4,0,0.8,0.1,1.3,0.2l9.4,2.3c0.1,0,0.3,0,0.4,0
				l4.7-1c0.6-0.1,1.3,0,1.8,0.3l13.1,9c0.7,0.5,1,1.5,0.5,2.3c-0.2,0.4-0.6,0.7-1.1,0.9c-0.4,0.1-0.9,0.1-1.3-0.1l-8.3-4.8
				c-0.3-0.2-0.8-0.2-1.1,0.1s-0.5,0.6-0.4,1L35,33.7c0,0.2,0.2,0.4,0.3,0.6l7.4,5.9c0.3,0.3,0.8,0.3,1.1,0l5-3.4
				c0.8-0.6,2-0.4,2.6,0.3c0.4,0.4,0.6,1,0.5,1.5C52,39.2,51.8,39.7,51.3,40z"></path>
  <path fill="#ebf3ff" d="M52.1,38.6c0,0.6-0.3,1.1-0.7,1.4l-6.8,5.6c-0.4,0.3-1,0.3-1.4,0l-9.1-7.2c-0.4-0.3-0.9-0.3-1.3,0l-5.7,5.3
				c-0.8,0.7-1.1,1.8-0.9,2.9l2.6,11.8c0.3,1.2-0.5,2.4-1.7,2.6c-1.2,0.3-2.3-0.5-2.6-1.6l-3.5-14.3c-0.1-0.3,0-0.6,0.2-0.9l6-8.5
				c0.2-0.2,0.2-0.5,0.2-0.8l-2.7-13.7c-0.1-0.3-0.3-0.6-0.7-0.7l-10.1-3c-0.9-0.3-1.6-0.9-1.9-1.7c-0.2-0.6-0.2-1.1,0.1-1.5
				c0.3-0.4,0.7-0.8,1.5-0.8c0.4,0,0.8,0.1,1.3,0.2l9.4,2.3c0.1,0,0.3,0,0.4,0l4.7-1c0.6-0.1,1.3,0,1.8,0.3l13.1,9
				c0.7,0.5,1,1.5,0.5,2.3c-0.2,0.4-0.6,0.7-1.1,0.9c-0.4,0.1-0.9,0.1-1.3-0.1l-8.3-4.8c-0.3-0.2-0.8-0.2-1.1,0.1s-0.5,0.6-0.4,1
				L35,33.7c0,0.2,0.2,0.4,0.3,0.6l7.4,5.9c0.3,0.3,0.8,0.3,1.1,0l5-3.4c0.8-0.6,2-0.4,2.6,0.3C51.9,37.5,52.1,38.1,52.1,38.6z"></path>
  <g>
    <path fill="#143751" d="M30.9,4.8c-0.3-1.6-1.3-3-2.7-3.9c-1.4-0.9-3-1.2-4.6-0.8c-1.6,0.4-3,1.3-3.8,2.7c-0.6,1-1,2.1-1,3.3
				c0,0.5,0,0.9,0.1,1.4c0.6,2.9,3.2,4.8,6,4.8c0.4,0,0.9,0,1.3-0.1c1.6-0.4,3-1.3,3.8-2.7C30.9,8,31.2,6.4,30.9,4.8z M25.8,10.2
				c-2.3,0.5-4.5-0.9-5-3.2c-0.5-2.3,0.9-4.5,3.2-5c1.1-0.2,2.2,0,3.2,0.6c0.9,0.6,1.6,1.5,1.8,2.6C29.5,7.5,28,9.7,25.8,10.2z"></path>
    <path fill="#b9d5ea" d="M25.8,10.2c-2.3,0.5-4.5-0.9-5-3.2c-0.5-2.3,0.9-4.5,3.2-5c1.1-0.2,2.2,0,3.2,0.6c0.9,0.6,1.6,1.5,1.8,2.6
				C29.5,7.5,28,9.7,25.8,10.2z"></path>
  </g>
  <g>
    <path fill="#143751" d="M42,50.7c-3.7,0-6.7,3-6.7,6.7c0,3.7,3,6.7,6.7,6.7c3.7,0,6.7-3,6.7-6.7C48.7,53.7,45.7,50.7,42,50.7z
			 M42,62.1c-2.6,0-4.7-2.1-4.7-4.7c0-2.6,2.1-4.7,4.7-4.7c2.6,0,4.7,2.1,4.7,4.7C46.7,59.9,44.6,62.1,42,62.1z"></path>
    <path fill="#edc45f" d="M46.7,57.3c0,2.6-2.1,4.7-4.7,4.7c-2.6,0-4.7-2.1-4.7-4.7c0-2.6,2.1-4.7,4.7-4.7
			C44.6,52.6,46.7,54.7,46.7,57.3z"></path>
  </g>
</svg>
